# xmcd
#
# Track frame offsets: 
#        150
#        15228
#        35516
#        51693
#        62699
#        74863
#        94583
#        112434
#        123402
#        138238
#        158378
#        167318
#        180601
#
# Disc length: 2621 seconds
#
# Revision: 0
# Processed by: cddbd v1.5.2PL0 Copyright (c) Steve Scherf et al.
# Submitted via: ExactAudioCopyFreeDBPlugin 1.0
#
DISCID=b10a3b0d
DTITLE=Wendy DeWitt and Kirk Harwood - Industrial Strength
DYEAR=2011
DGENRE=Blues
TTITLE0=Nervous
TTITLE1=Summertime
TTITLE2=Lucky Old Sun
TTITLE3=Don't Tell Me You Love Me
TTITLE4=It's Too Late
TTITLE5=Jungle Boogie
TTITLE6=Boogie Woogie Stomp
TTITLE7=Wings Of Love
TTITLE8=Bass Key Boogie
TTITLE9=If I Could Just
TTITLE10=Love And Appreciation
TTITLE11=San Francisco
TTITLE12=Gone
EXTD=
EXTT0=
EXTT1=
EXTT2=
EXTT3=
EXTT4=
EXTT5=
EXTT6=
EXTT7=
EXTT8=
EXTT9=
EXTT10=
EXTT11=
EXTT12=
PLAYORDER=
